# xmcd CD database file
#
# Track frame offsets:
#	150
#	15067
#	32455
#	49780
#	66695
#	84817
#	109422
#	128015
#	147765
#	162522
#	182842
#	206802
#
# Disc length: 2905 seconds
#
# Revision: 1
# Processed by: cddbd v1.5.1PL0 Copyright (c) Steve Scherf et al.
# Submitted via: CDex 1.51
#
DISCID=9f0b570c
DTITLE=Fragile - Polarity
DYEAR=2004
DGENRE=Jazz
TTITLE0=Ain`t Nobody (David Wolinski)
TTITLE1=Holding Back the Years (Mike Hucknall, Neal Moss)
TTITLE2=Wish You were Here (Roger Waters, David Gilmour)
TTITLE3=Digging in the Dirt (Peter Gabriel)
TTITLE4=Get Here (Brenda Russell)
TTITLE5=Cry Me a River (Arthur Hamilton)
TTITLE6=Love is Alive (Gary Wright)
TTITLE7=I Don`t wanna Grow Up (Tom Waits, Kathleen Brennan)
TTITLE8=Baby Love (Mother Finest)
TTITLE9=Polarity (Udo Betz)
TTITLE10=Losing my Mind (Stephen Sondheim)
TTITLE11=On a Clear Day (Burton Lane)
EXTD=YEAR: 2004
EXTT0=
EXTT1=
EXTT2=
EXTT3=
EXTT4=
EXTT5=
EXTT6=
EXTT7=
EXTT8=
EXTT9=
EXTT10=
EXTT11=
PLAYORDER=
